<svg viewBox="0 0 1399.57 945.99">
    <path d="M1368.29,2.49H1097.86c-38.43,0-38.43,0-46.48,45.59s-7.15,45.58,26.82,45.58h88.1l-49,284.23c-8.94,55.42-8.17,55.42,41.89,55.42,45.66,0,48.37,0,54.63-39.33L1265.5,93.65h84c37.92,0,38,0,45.82-45.58s7.8-45.59-27.05-45.59" />
    <path d="M628.74,2.49c-47.1,0-48,.3-54.7,39.44l-35.62,207c-9.83,59.89-26.09,95-84.19,95s-78-34.86-69-88.48L419,57.58c8.94-55.42,7.3-55.09-41.86-55.09-48,0-49.26-.38-55.52,38.94L286,249.18C265.63,366.72,338,439.56,441.71,439.56c116.19,0,174.68-51.82,194.35-176.06l35.4-205.66c9.49-55.35,7.34-55.35-42.72-55.35" />
    <path d="M229.68,2.53H111.24c-38.72,0-38.72,0-46.64,44.88S57.64,93.66,92,93.66h70.25l-39,227.43c-8.8,51-31.68,85.36-100.32,106.48C5.28,432.84,0,439.89,0,447.81c0,8.8,3.52,17.6,10.56,36.08,10.56,27.28,17.6,32.56,27.28,32.56s27.28-5.28,33.44-7C169,477.72,207.67,402.93,223.51,313.17l44-256.07C277.2,3.42,277.2,2.53,229.68,2.53" />
    <path d="M846.33,342.39c38.17-2.24,58.18-18.57,58.18-37.33,0-22.35-27.71-30.39-64.35-41.12-72.4-22.34-136.76-47.7-136.76-124.56C703.41,49.1,777.59,0,871.44,0c39.34,0,84.5,2.29,113.77,5,26.27,2.42,31.1,11.77,24.33,51.05s-15.9,43.36-37.67,41.49A1022.77,1022.77,0,0,0,869,93.25c-48.26.61-61.93,17-61.93,33.93,0,20.56,18.77,32.18,63.46,43.8,83.12,24.13,137.65,56.88,137.65,128.38,0,84-62.58,133.18-162.67,137.09a767.32,767.32,0,0,1-142.91-7.92c-31.86-4.64-33-5.19-25.08-51,7.27-41.76,8.23-44.64,37.53-41.15,56.43,6.72,93.1,8.23,131.27,6" />
    <path d="M818,759.18l62.57-136.75c5.36-11.62,5.36-11.62,12.51-11.62,8,0,8,0,9.83,12.51l18.77,135.86ZM986.91,568.8c-9.83-53.63-9.83-53.63-85.81-53.63-71.5,0-70.61,0-92.06,43.8L647.26,894.15C624,942.41,627.59,946,687.48,946c46.48,0,45.59,0,65.25-42.9l25.92-57.2H934.17l8,57.2c6.26,42.9,8,42.9,54.52,42.9,52.29,0,57.3-3.74,47.37-55.41Z" />
    <path d="M615.32,606.34c38,0,38.11-.43,45.87-45.58,7.81-45.47,7.76-45.58-27.1-45.58H441c-67.93,0-66.64,0-78.26,68.82L313.31,871.8C300.8,946,301.59,946,371.31,946H559.91c39.33,0,38.43,0,46.48-44.69,8-46.48,8-46.48-27.71-46.48H416l13.41-83.12h135c36.64,0,36.64,0,42.9-42.9,7.15-43.8,7.15-43.8-42.9-43.8H443.71l13.41-78.66Z" />
    <path d="M1368.29,515.17H1097.85c-38.43,0-38.43,0-46.48,45.59s-7.15,45.58,26.82,45.58h88.1l-49,284.23c-8.94,55.42-8.17,55.42,41.89,55.42,45.66,0,48.37,0,54.63-39.33l51.74-300.32h84c37.92,0,38,0,45.82-45.58s7.8-45.59-27.05-45.59" />
</svg>