<svg viewBox="0 0 949.01 186.55">
  <path d="M1428.41,535.77l22.6-49.4c1.94-4.2,1.94-4.2,4.52-4.2,2.91,0,2.91,0,3.55,4.52l6.78,49.08h-37.45Zm61-68.77c-3.55-19.37-3.55-19.37-31-19.37-25.83,0-25.51,0-33.26,15.82l-58.44,121.07c-8.39,17.43-7.1,18.73,14.53,18.73,16.79,0,16.47,0,23.57-15.5l9.36-20.66h56.18l2.91,20.66c2.26,15.5,2.91,15.5,19.69,15.5,18.89,0,20.7-1.35,17.11-20Z" transform="translate(-689.5 -446.72)"/>
  <path d="M1355.21,480.56c13.72,0,13.77-.15,16.57-16.47s2.8-16.47-9.79-16.47h-69.74c-24.54,0-24.07,0-28.27,24.86l-17.86,104c-4.52,26.8-4.23,26.8,21,26.8h68.13c14.21,0,13.88,0,16.79-16.14,2.91-16.79,2.91-16.79-10-16.79h-58.76l4.84-30h48.75c13.24,0,13.24,0,15.5-15.5,2.58-15.82,2.58-15.82-15.5-15.82h-43.59l4.84-28.41h57.15Z" transform="translate(-689.5 -446.72)"/>
  <path d="M1183.76,447.62h-97.69c-13.88,0-13.88,0-16.79,16.47s-2.58,16.47,9.69,16.47h31.82l-17.71,102.67c-3.23,20-3,20,15.13,20,16.49,0,17.47,0,19.73-14.21l18.69-108.49H1177c13.7,0,13.71,0,16.55-16.47s2.82-16.47-9.77-16.47" transform="translate(-689.5 -446.72)"/>
  <path d="M916.61,447.62c-17,0-17.33.11-19.76,14.25L884,536.63c-3.55,21.63-9.42,34.33-30.41,34.33s-28.17-12.59-24.94-32l12.21-71.47c3.23-20,2.64-19.9-15.12-19.9-17.35,0-17.79-.14-20.05,14.07l-12.88,75c-7.34,42.46,18.81,68.77,56.26,68.77,42,0,63.1-18.72,70.2-63.6L932,467.62c3.43-20,2.65-20-15.43-20" transform="translate(-689.5 -446.72)"/>
  <path d="M772.46,447.64H729.68c-14,0-14,0-16.85,16.21s-2.52,16.7,9.88,16.7h25.38L734,562.71c-3.18,18.44-11.44,30.83-36.24,38.46-6.36,1.91-8.27,4.45-8.27,7.31,0,3.18,1.27,6.36,3.82,13,3.82,9.85,6.36,11.76,9.85,11.76s9.85-1.91,12.08-2.54c35.28-11.44,49.27-38.46,55-70.89l15.89-92.5c3.5-19.39,3.5-19.71-13.67-19.71" transform="translate(-689.5 -446.72)"/>
  <path d="M995.22,570.41c13.79-.81,21-6.71,21-13.49,0-8.07-10-11-23.25-14.85-26.15-8.07-49.4-17.23-49.4-45,0-32.61,26.8-50.35,60.7-50.35,14.21,0,30.52.83,41.1,1.81,9.49,0.87,11.23,4.25,8.79,18.44s-5.74,15.66-13.61,15a369.09,369.09,0,0,0-37.15-1.54C986,480.63,981,486.53,981,492.67c0,7.43,6.78,11.62,22.92,15.82,30,8.72,49.72,20.54,49.72,46.37,0,30.35-22.6,48.11-58.76,49.52a277.31,277.31,0,0,1-51.62-2.86c-11.51-1.68-11.94-1.88-9.06-18.42,2.62-15.09,3-16.13,13.55-14.87,20.38,2.43,33.63,3,47.42,2.16" transform="translate(-689.5 -446.72)"/>
  <path d="M1627.2,447.62h-97.69c-13.88,0-13.88,0-16.79,16.47s-2.58,16.47,9.69,16.47h31.82l-17.71,102.67c-3.23,20-3,20,15.13,20,16.49,0,17.47,0,19.73-14.21l18.69-108.49h30.35c13.7,0,13.71,0,16.55-16.47s2.82-16.47-9.77-16.47" transform="translate(-689.5 -446.72)"/>
</svg>
